<svg width="100" height="100" viewBox="0 0 100 100" fill="none" xmlns="http://www.w3.org/2000/svg">
<circle cx="50" cy="50" r="49" fill="white" stroke="#FF2E9F" stroke-width="2"/>
<path d="M49.5 41.2989C44.9842 41.2989 41.2989 44.9842 41.2989 49.5C41.2989 54.0158 44.9842 57.701 49.5 57.701C54.0158 57.701 57.7011 54.0158 57.7011 49.5C57.7011 44.9842 54.0158 41.2989 49.5 41.2989ZM74.0971 49.5C74.0971 46.1039 74.1278 42.7385 73.9371 39.3486C73.7464 35.4111 72.8481 31.9166 69.9688 29.0373C67.0834 26.1518 63.595 25.2597 59.6575 25.069C56.2614 24.8783 52.8961 24.9091 49.5061 24.9091C46.11 24.9091 42.7447 24.8783 39.3548 25.069C35.4173 25.2597 31.9227 26.158 29.0434 29.0373C26.158 31.9227 25.2659 35.4111 25.0752 39.3486C24.8845 42.7447 24.9152 46.11 24.9152 49.5C24.9152 52.8899 24.8845 56.2614 25.0752 59.6513C25.2659 63.5888 26.1641 67.0834 29.0434 69.9627C31.9289 72.8481 35.4173 73.7402 39.3548 73.9309C42.7509 74.1217 46.1162 74.0909 49.5061 74.0909C52.9022 74.0909 56.2676 74.1217 59.6575 73.9309C63.595 73.7402 67.0895 72.842 69.9688 69.9627C72.8543 67.0772 73.7464 63.5888 73.9371 59.6513C74.134 56.2614 74.0971 52.8961 74.0971 49.5V49.5ZM49.5 62.1184C42.5171 62.1184 36.8815 56.4829 36.8815 49.5C36.8815 42.5171 42.5171 36.8815 49.5 36.8815C56.4829 36.8815 62.1184 42.5171 62.1184 49.5C62.1184 56.4829 56.4829 62.1184 49.5 62.1184ZM62.6352 39.3117C61.0049 39.3117 59.6883 37.9951 59.6883 36.3647C59.6883 34.7343 61.0049 33.4177 62.6352 33.4177C64.2656 33.4177 65.5822 34.7343 65.5822 36.3647C65.5827 36.7519 65.5068 37.1353 65.3589 37.4931C65.211 37.8508 64.9939 38.1759 64.7202 38.4496C64.4464 38.7234 64.1213 38.9404 63.7636 39.0884C63.4058 39.2363 63.0224 39.3122 62.6352 39.3117V39.3117Z" fill="#FF2E9F"/>
</svg>
