<svg width="100" height="100" viewBox="0 0 100 100" fill="none" xmlns="http://www.w3.org/2000/svg">
<circle cx="50" cy="50" r="49" fill="white" stroke="#FF2E9F" stroke-width="2"/>
<path d="M70.3277 32.0638C69.9164 31.851 69.5159 31.6178 69.1279 31.365C68.0003 30.6195 66.9665 29.7411 66.0485 28.7488C63.7492 26.119 62.8906 23.4513 62.5765 21.5852H62.5873C62.3246 20.0333 62.4329 19.0312 62.4519 19.0312H51.9842V59.5019C51.9842 60.0435 51.9842 60.5825 51.9625 61.1133C51.9625 61.1783 51.9544 61.2379 51.9517 61.311C51.9517 61.3381 51.9517 61.3706 51.9435 61.4004V61.4248C51.8336 62.8765 51.3686 64.279 50.5893 65.5088C49.8101 66.7385 48.7405 67.7579 47.4748 68.4773C46.1543 69.2285 44.6607 69.6225 43.1415 69.6202C38.2665 69.6202 34.3123 65.6444 34.3123 60.7342C34.3123 55.8213 38.2665 51.8454 43.1415 51.8454C44.065 51.8454 44.9831 51.9917 45.8606 52.2788L45.8742 41.6188C43.2092 41.2749 40.5019 41.4873 37.9231 42.2425C35.3444 42.9976 32.9502 44.2792 30.8917 46.0063C29.0875 47.5731 27.5707 49.4428 26.4094 51.5313C25.9679 52.2923 24.2996 55.3554 24.0992 60.3225C23.9719 63.1392 24.8196 66.0642 25.2231 67.2694V67.2965C25.475 68.006 26.4608 70.4327 28.0642 72.4775C29.3571 74.1188 30.8848 75.5606 32.5979 76.7567V76.7296L32.6223 76.7567C37.6869 80.1963 43.3067 79.9715 43.3067 79.9715C44.279 79.9308 47.5371 79.9715 51.2367 78.2192C55.3398 76.2746 57.6744 73.3794 57.6744 73.3794C59.167 71.6491 60.3539 69.6772 61.1844 67.5483C62.1323 65.0567 62.4465 62.0721 62.4465 60.8804V39.406C62.5737 39.4819 64.2665 40.6004 64.2665 40.6004C64.2665 40.6004 66.704 42.1631 70.5037 43.1788C73.2283 43.9019 76.9035 44.0563 76.9035 44.0563V33.6644C75.6171 33.8052 73.0035 33.399 70.325 32.0665L70.3277 32.0638Z" fill="#FF2E9F"/>
</svg>
