<svg width="100" height="100" viewBox="0 0 100 100" fill="none" xmlns="http://www.w3.org/2000/svg">
<circle cx="50" cy="50" r="49" fill="white" stroke="#FF2E9F" stroke-width="2"/>
<g clip-path="url(#clip0_15_184)">
<path d="M79.7083 35.8097C79.3573 34.5574 78.6734 33.4236 77.7295 32.5289C76.7589 31.6066 75.5693 30.9469 74.273 30.6121C69.4215 29.3333 49.9845 29.3333 49.9845 29.3333C41.8814 29.2411 33.7804 29.6466 25.727 30.5475C24.4307 30.9071 23.2433 31.5815 22.2705 32.5108C21.3147 33.4305 20.6223 34.5646 20.2607 35.8071C19.3919 40.4875 18.9698 45.2398 19 50C18.969 54.7559 19.3901 59.5066 20.2607 64.1928C20.6146 65.4302 21.3043 66.5591 22.2628 67.4711C23.2212 68.383 24.4147 69.0417 25.727 69.3905C30.6431 70.6666 49.9845 70.6666 49.9845 70.6666C58.0979 70.759 66.2093 70.3535 74.273 69.4525C75.5693 69.1176 76.7589 68.4579 77.7295 67.5356C78.6731 66.6411 79.3561 65.5072 79.7058 64.2548C80.5972 59.5763 81.0307 54.822 81 50.0594C81.0671 45.2766 80.6341 40.4999 79.7083 35.8071V35.8097ZM43.8052 58.8453V41.1572L59.9768 50.0026L43.8052 58.8453Z" fill="#FF2E9F"/>
</g>
<defs>
<clipPath id="clip0_15_184">
<rect width="62" height="62" fill="white" transform="translate(19 19)"/>
</clipPath>
</defs>
</svg>
